<svg xmlns="http://www.w3.org/2000/svg" version="1.1" xmlns:xlink="http://www.w3.org/1999/xlink" xmlns:svgjs="http://svgjs.dev/svgjs" width="100%" height="100%" viewBox="0 0 1000 600"><rect width="1000" height="600" x="0" y="0" fill="#ec4d37"/><g><circle r="166.66666666666666" cx="388.65185038248694" cy="410.874083962741" fill="#1d1b1b" transform="matrix(0.5631004939227506,0,0,0.5631004939227506,0,68.63656793726983)"/><path d="M374.79671071630054 410.8569105086436L386.69219518327856 410.8569105086436Q398.07197945660147 410.8569105086436 404.7417019612077 403.9465279136651Q411.44580447872414 397.00176530577613 411.44580447872414 386.9971815488668Q411.44580447872414 376.95821777904723 405.1198821032214 371.86997586831677Q398.79395972771863 366.8161139704966 388.89251600954043 366.8161139704966L388.89251600954043 366.8161139704966L378.9910722913621 366.8161139704966L374.79671071630054 410.8569105086436ZM304.2489242242805 335.87410235118955L414.6431456793859 335.87410235118955Q441.1501356332589 335.87410235118955 457.10246162365723 348.3540470376434Q473.05478761405556 360.8683717370076 473.05478761405556 385.38132094208083L473.05478761405556 385.38132094208083Q473.05478761405556 394.28574428585915 469.3417462197387 402.330667306879Q465.62870482542183 410.3755903278988 460.4373228759603 415.326312186988L460.4373228759603 415.326312186988Q449.5388587833822 425.2277559051662 440.3937753492314 429.4221174802278L440.3937753492314 429.4221174802278L436.6807339549146 430.93483804828287L463.42838399916 485.874098679008L420.10956773213013 485.874098679008L372.08068969638356 437.60456055288904L367.3706279276668 485.874098679008L319.10108980154786 485.874098679008L304.2489242242805 335.87410235118955Z " fill="#ec4d37" transform="matrix(0.5631004939227506,0,0,0.5631004939227506,0,68.63656793726983)"/><path d="M685.543389227303 370.6293948276777L691.4957700995905 386.10558509562486Q704.1280450618892 367.28944778267197 722.7127008964753 367.28944778267197L722.7127008964753 367.28944778267197Q731.508997074411 367.28944778267197 738.8833355995226 371.5883895237684L738.8833355995226 371.5883895237684L733.162436205602 410.64262180249835Q723.6386268099423 403.9627277124869 711.7338650653675 403.9627277124869L711.7338650653675 403.9627277124869Q700.32513506015 403.9627277124869 696.2576747974203 413.4865371081467L696.2576747974203 413.4865371081467Q693.8767224485053 419.4389179804341 693.1822780134052 424.928335895988L693.1822780134052 424.928335895988L688.6518547939421 483.49314992277095L645.794712513473 483.49314992277095L638.6518554667281 370.6293948276777L685.543389227303 370.6293948276777ZM808.1624351964228 485.8741022716859L808.1624351964228 485.8741022716859Q781.2775149232582 485.8741022716859 763.0566156975342 470.26563687324347Q744.8357164718101 454.6902402574249 744.8357164718101 424.4323041566307L744.8357164718101 424.4323041566307Q744.8357164718101 405.38468536531116 754.128044389103 392.0579659679122L754.128044389103 392.0579659679122Q771.0261923098744 367.28944778267197 806.5089960652319 367.28944778267197L806.5089960652319 367.28944778267197Q833.6584665993871 367.28944778267197 847.9441806928768 378.1360084832845Q862.2298947863665 388.98256918389706 862.2298947863665 408.0301879752166L862.2298947863665 408.0301879752166Q862.2298947863665 422.7788650254398 850.4243393896631 431.93891781223755Q838.6518527755837 441.09897059903534 816.0328054608917 441.09897059903534L816.0328054608917 441.09897059903534Q806.7404775435987 441.09897059903534 799.366139018487 439.67701294621116L799.366139018487 439.67701294621116L796.7537051912054 439.2140499894777Q797.9441813656629 447.77886468904677 804.2603188468122 451.9455312996479Q810.5433875453379 456.11219791024905 819.3727525058974 456.11219791024905L819.3727525058974 456.11219791024905Q833.8899480777538 456.11219791024905 844.1412706911376 447.3159017323133L844.1412706911376 447.3159017323133L858.8899477413609 465.1730443491754Q855.0870377396216 469.67039878601474 849.8291013024344 473.6055839182491Q844.6042336478711 477.54076905048356 833.1624348600299 481.70743566108473Q821.7537048548124 485.8741022716859 808.1624351964228 485.8741022716859ZM827.4746042487329 405.88071710466846Q827.4746042487329 401.1188124068386 823.7709005948652 398.0103468401996Q820.0671969409976 394.93495005618445 813.6518531119768 394.93495005618445Q807.2365092829559 394.93495005618445 801.6148162369068 400.62278066748127Q796.0261919734814 406.3436800614019 796.0261919734814 414.21405032587074L796.0261919734814 414.21405032587074Q801.2841284106686 416.5950026747857 809.7166679797424 416.5950026747857Q818.18227633144 416.5950026747857 822.8119058987745 413.618812238642Q827.4746042487329 410.64262180249835 827.4746042487329 405.88071710466846ZM965.3052902248094 367.28944778267197L965.3052902248094 367.28944778267197Q981.971956667214 367.28944778267197 994.0089935422841 381.34368039779497Q1006.0460304173541 395.3979130129179 1006.0460304173541 417.8846851971146Q1006.0460304173541 440.40452616393515 1000.5566125018001 483.49314992277095L1000.5566125018001 483.49314992277095L958.8899463957886 483.49314992277095L954.1280416979587 430.1532035505514Q951.7470893490438 404.69024093021096 940.3052905612024 404.69024093021096L940.3052905612024 404.69024093021096Q926.7470896854368 404.69024093021096 925.7880949893461 430.3846850289181L925.7880949893461 430.3846850289181L924.134655858155 483.49314992277095L880.3185188815953 483.49314992277095L875.3251327053987 370.6293948276777L929.1280420343517 370.6293948276777L928.169047338261 390.86748979345475Q929.3595235127184 388.4865374445398 933.6584652538149 383.4931512683432Q937.9243382122875 378.49976509214656 941.9917984750173 375.3912995255076L941.9917984750173 375.3912995255076Q952.4746025667678 367.28944778267197 965.3052902248094 367.28944778267197ZM1085.080420888281 401.58177536357204L1083.4269817570898 441.09897059903534Q1083.1624314960995 454.9217217357916 1093.1822726311166 454.9217217357916L1093.1822726311166 454.9217217357916Q1096.026187936765 454.9217217357916 1100.0936481994945 452.30928790850993L1100.0936481994945 452.30928790850993L1105.087034375691 475.3912981799354Q1103.665076722867 476.58177435439285 1101.1518492434566 478.367488616079Q1098.6386217640465 480.1532028777653 1090.4375636733394 483.0301869660375Q1082.2365055826326 485.8741022716859 1073.4071406220728 485.8741022716859L1073.4071406220728 485.8741022716859Q1057.2365059190256 485.8741022716859 1046.9851833056418 474.7960600927066Q1036.733860692258 463.71801791372735 1036.0394162571579 446.5883885145893L1036.0394162571579 446.5883885145893L1033.8899453866097 401.58177536357204L1015.5698398130139 401.58177536357204L1018.4137551186623 370.6293948276777L1032.699469212152 370.6293948276777L1031.740474516061 347.3159030778855L1088.1888864549196 335.8741042900442L1086.502378541105 370.6293948276777L1100.3251296778612 370.6293948276777L1103.1690449835096 401.58177536357204L1085.080420888281 401.58177536357204ZM1180.087033366512 424.6968544176213L1119.3727484691808 424.6968544176213L1119.3727484691808 401.3502938852053L1180.087033366512 401.3502938852053L1180.087033366512 424.6968544176213ZM1290.0738043733331 448.7378593851375L1303.6650740317227 466.82648348036633Q1285.8079314148604 485.8741022716859 1255.9137519229284 485.8741022716859Q1226.019572430996 485.8741022716859 1209.6174562495821 469.80267391651Q1193.1822712855442 453.7312455613341 1193.1822712855442 424.4323041566307Q1193.1822712855442 395.1664315345512 1210.8079324240398 381.2444740499235Q1228.400524779911 367.28944778267197 1254.855550878966 367.28944778267197L1254.855550878966 367.28944778267197Q1266.032799405817 367.28944778267197 1276.383328367072 369.4389186532202Q1286.7338573283273 371.5883895237684 1291.4957620261575 373.9693418726834L1291.4957620261575 373.9693418726834L1296.2576667239873 376.1188127432316L1291.0327990694236 400.62278066748127Q1281.2775081953973 397.77886536183286 1270.926979234142 397.77886536183286Q1260.543381490263 397.77886536183286 1252.1108419211891 404.32648432134897Q1243.6452335694917 410.8741032808651 1243.6452335694917 424.4323041566307L1243.6452335694917 424.4323041566307Q1243.6452335694917 454.9217217357916 1267.2232755802743 454.9217217357916L1267.2232755802743 454.9217217357916Q1273.4071379309285 454.9217217357916 1279.1280373248492 453.3674889524721Q1284.84893671877 451.8132561691526 1287.4613705460515 450.15981703796166L1287.4613705460515 450.15981703796166L1290.0738043733331 448.7378593851375ZM1351.5156024883881 485.8741022716859L1351.5156024883881 485.8741022716859Q1333.1624281321688 485.8741022716859 1321.3899415180895 475.1598167015686Q1309.6174549040097 464.4455311314514 1309.6174549040097 444.80267425290305Q1309.6174549040097 425.15981737435476 1322.944174301409 416.2312460659237Q1336.2708936988079 407.30267475749264 1355.0870310117607 407.30267475749264Q1373.9031683247135 407.30267475749264 1387.6928506788458 413.25505562978003L1387.6928506788458 413.25505562978003Q1384.6174538948308 393.47992362073643 1362.6928510152388 393.47992362073643L1362.6928510152388 393.47992362073643Q1352.7060786628458 393.47992362073643 1337.9243328299985 397.5473838834661L1337.9243328299985 397.5473838834661L1331.9719519577116 376.1188127432316Q1353.400523097946 367.28944778267197 1375.5566074559042 367.28944778267197L1375.5566074559042 367.28944778267197Q1439.3793579198746 367.28944778267197 1439.3793579198746 421.5883888509823L1439.3793579198746 421.5883888509823Q1439.3793579198746 440.1730446855684 1435.0804161787783 473.0103458310204L1435.0804161787783 473.0103458310204L1433.8899400043206 483.49314992277095L1394.6042262472238 483.49314992277095L1393.1822685943998 470.3979120037388Q1376.9785651087286 485.8741022716859 1351.5156024883881 485.8741022716859ZM1372.944173628623 456.3436793886158L1372.944173628623 456.3436793886158Q1383.6584591987398 456.3436793886158 1391.2642792022184 450.3912985163284L1391.2642792022184 450.3912985163284L1389.842321549394 434.68362677001454Q1383.889940677107 430.64923528990863 1376.6148084998667 430.64923528990863Q1369.3727451052505 430.64923528990863 1364.7100467552918 434.2206638132811Q1360.0804171879572 437.7920923366535 1360.0804171879572 443.0169599912169Q1360.0804171879572 448.24182764578023 1363.6518457113298 452.30928790850993Q1367.2232742347019 456.3436793886158 1372.944173628623 456.3436793886158ZM1500.5566057739393 370.6293948276777L1506.5089866462267 386.10558509562486Q1519.1412616085254 367.28944778267197 1537.6928486604875 367.28944778267197L1537.6928486604875 367.28944778267197Q1546.5222136210473 367.28944778267197 1553.8965521461587 371.5883895237684L1553.8965521461587 371.5883895237684L1548.175652752238 410.64262180249835Q1538.6518433565784 403.9627277124869 1526.7470816120035 403.9627277124869L1526.7470816120035 403.9627277124869Q1515.305282824162 403.9627277124869 1511.2708913440565 413.4865371081467L1511.2708913440565 413.4865371081467Q1508.8899389951416 419.4389179804341 1508.1624257774174 424.928335895988L1508.1624257774174 424.928335895988L1503.6650713405784 483.49314992277095L1460.807929060109 483.49314992277095L1453.6650720133644 370.6293948276777L1500.5566057739393 370.6293948276777Z " fill="#1d1b1b" transform="matrix(0.5631004939227506,0,0,0.5631004939227506,0,68.63656793726983)"/></g></svg>